<?xml version="1.0" standalone="no"?>
<!DOCTYPE svg PUBLIC "-//W3C//DTD SVG 20010904//EN"
 "http://www.w3.org/TR/2001/REC-SVG-20010904/DTD/svg10.dtd">
<svg version="1.0" xmlns="http://www.w3.org/2000/svg"
 width="1378.000000pt" height="326.000000pt" viewBox="0 0 1378.000000 326.000000"
 preserveAspectRatio="xMidYMid meet">

<g transform="translate(0.000000,326.000000) scale(0.100000,-0.100000)"
fill="#000000" stroke="none">
<path d="M1575 3030 c-494 -56 -915 -354 -1132 -801 -145 -299 -180 -654 -97
-975 68 -262 185 -466 379 -659 204 -204 436 -329 727 -392 119 -26 429 -25
547 1 581 126 1005 557 1121 1136 32 158 33 368 1 527 -59 304 -183 537 -400
753 -170 168 -337 273 -554 345 -180 60 -411 85 -592 65z m422 -71 c569 -123
998 -576 1083 -1144 17 -109 14 -341 -4 -447 -31 -174 -105 -359 -204 -513
-46 -73 -160 -211 -209 -255 -201 -181 -417 -292 -675 -347 -117 -25 -409 -25
-528 0 -363 76 -678 288 -879 593 -106 160 -182 353 -213 538 -18 110 -15 374
6 480 117 595 603 1048 1199 1116 110 13 315 3 424 -21z"/>
<path d="M1710 2951 c0 -5 5 -11 12 -13 23 -8 -4 -28 -38 -28 -29 0 -35 -3
-32 -17 2 -10 10 -17 18 -15 7 2 17 -2 21 -9 4 -7 15 -9 25 -5 16 6 16 8 4 17
-13 8 -13 10 0 19 25 16 60 13 53 -5 -4 -13 3 -12 36 6 53 27 53 43 0 36 -29
-4 -42 -1 -46 9 -6 15 -53 20 -53 5z"/>
<path d="M1770 2851 c0 -5 5 -11 11 -13 12 -4 15 -75 4 -108 -5 -15 -2 -20 14
-20 15 0 22 9 27 36 9 50 -11 114 -36 114 -11 0 -20 -4 -20 -9z"/>
<path d="M1724 2842 c-6 -4 -11 -15 -11 -26 0 -17 2 -17 12 -3 11 15 13 15 30
-1 17 -16 17 -16 11 1 -3 10 -6 23 -6 28 0 11 -21 12 -36 1z"/>
<path d="M1670 2764 c0 -34 4 -53 10 -49 6 3 10 28 10 56 0 27 -4 49 -10 49
-5 0 -10 -25 -10 -56z"/>
<path d="M1744 2776 c-8 -22 3 -33 18 -18 9 9 9 15 0 24 -9 9 -13 7 -18 -6z"/>
<path d="M1710 2771 c0 -6 5 -13 10 -16 6 -3 10 1 10 9 0 9 -4 16 -10 16 -5 0
-10 -4 -10 -9z"/>
<path d="M1040 2731 c0 -30 4 -41 15 -41 8 0 15 -4 15 -8 0 -5 14 -7 30 -4 18
3 30 0 30 -7 0 -6 -7 -11 -15 -11 -8 0 -15 -7 -15 -15 0 -18 -11 -19 -29 -2
-11 10 -13 9 -8 -5 3 -9 -1 -22 -9 -28 -18 -16 -18 -34 0 -27 8 3 20 -1 26 -8
9 -11 17 -12 30 -5 29 16 43 12 37 -10 -3 -13 0 -20 9 -20 8 0 14 3 15 8 7 49
6 82 -2 82 -15 0 -10 30 6 36 23 9 18 26 -6 19 -14 -5 -25 -1 -34 12 -7 10
-17 15 -21 11 -4 -4 -15 7 -24 25 -10 17 -25 33 -34 35 -13 3 -16 -5 -16 -37z
m91 -123 c-28 -22 -41 -23 -41 -2 0 10 6 14 14 11 8 -3 17 1 20 9 3 9 11 12
18 8 8 -5 4 -13 -11 -26z"/>
<path d="M2355 2717 c-16 -39 -24 -44 -42 -26 -13 13 -43 5 -43 -11 0 -5 11
-10 25 -10 13 0 36 -6 51 -12 22 -10 28 -10 32 0 6 18 22 15 22 -5 1 -16 2
-15 12 2 6 11 22 30 35 42 28 27 29 33 4 33 -11 0 -22 6 -25 13 -5 9 -7 9 -12
0 -12 -26 -43 -58 -49 -51 -4 3 -1 16 5 28 6 12 9 24 6 27 -3 4 -13 -10 -21
-30z"/>
<path d="M966 2701 c-3 -4 2 -15 12 -24 21 -19 48 -7 39 17 -7 17 -42 22 -51
7z"/>
<path d="M2475 2690 c7 -11 -17 -40 -33 -40 -19 0 -18 -24 2 -57 22 -34 46
-43 46 -18 0 8 -10 20 -22 26 -21 11 -21 12 12 39 34 28 37 60 5 60 -9 0 -13
-5 -10 -10z"/>
<path d="M1713 2633 c15 -2 37 -2 50 0 12 2 0 4 -28 4 -27 0 -38 -2 -22 -4z"/>
<path d="M972 2614 c5 -25 35 -41 49 -27 9 9 9 16 -1 28 -17 21 -52 20 -48 -1z"/>
<path d="M1598 2623 c12 -2 32 -2 45 0 12 2 2 4 -23 4 -25 0 -35 -2 -22 -4z"/>
<path d="M1870 2620 c36 -5 90 -16 120 -24 30 -8 57 -13 58 -11 9 9 -109 36
-173 40 l-70 4 65 -9z"/>
<path d="M1495 2610 l-20 -9 20 1 c11 0 34 4 50 8 l30 8 -30 0 c-16 0 -39 -3
-50 -8z"/>
<path d="M2290 2600 c0 -5 5 -10 11 -10 5 0 7 5 4 10 -3 6 -8 10 -11 10 -2 0
-4 -4 -4 -10z"/>
<path d="M2390 2600 c0 -5 5 -10 10 -10 6 0 10 5 10 10 0 6 -4 10 -10 10 -5 0
-10 -4 -10 -10z"/>
<path d="M1400 2580 c-8 -5 -10 -10 -5 -10 6 0 17 5 25 10 8 5 11 10 5 10 -5
0 -17 -5 -25 -10z"/>
<path d="M2340 2570 c0 -13 -9 -22 -25 -26 -30 -7 -33 -24 -6 -24 11 0 27 10
35 22 13 18 18 19 31 8 22 -18 19 -4 -5 20 -25 25 -30 25 -30 0z"/>
<path d="M1580 2565 c-382 -60 -688 -336 -792 -716 -20 -72 -23 -107 -23 -249
0 -180 13 -246 75 -392 112 -263 356 -472 643 -551 71 -19 106 -22 252 -21
155 0 178 3 258 27 360 111 610 388 688 762 20 95 16 285 -9 390 -53 231 -178
425 -364 565 -137 104 -269 159 -441 184 -123 19 -172 19 -287 1z m408 -322
l2 -243 45 0 c52 0 48 9 65 -155 14 -135 54 -352 86 -465 28 -97 98 -248 120
-257 8 -3 25 2 39 11 13 9 26 16 29 16 2 0 23 -27 45 -60 l41 -60 -53 -38
c-28 -21 -88 -62 -131 -91 l-79 -54 -19 26 c-10 14 -27 36 -38 49 l-18 23 -36
-19 c-42 -22 -47 -20 -110 64 -93 120 -160 274 -195 445 l-18 90 -33 0 -33 0
-27 -110 c-30 -119 -52 -180 -101 -277 -36 -72 -105 -172 -143 -207 -23 -22
-28 -23 -57 -11 -31 13 -33 13 -64 -24 l-31 -37 -119 71 c-66 38 -124 77 -129
84 -7 10 1 31 28 71 37 56 38 56 61 41 13 -9 29 -16 34 -16 17 0 68 102 105
207 42 122 91 367 109 548 l12 130 45 5 45 5 3 243 2 242 258 -2 257 -3 3
-242z"/>
<path d="M1498 2218 l-3 -243 -45 -3 -46 -3 -12 -107 c-7 -59 -15 -123 -18
-142 -4 -26 -3 -31 5 -20 9 12 10 10 10 -10 -1 -14 -5 -38 -9 -55 -7 -29 -8
-29 -10 10 -3 34 -4 36 -7 10 -26 -207 -110 -463 -184 -556 -35 -45 -26 -53
14 -11 33 35 90 164 113 257 9 39 21 75 26 80 25 27 -46 -195 -89 -277 -48
-92 -62 -103 -108 -87 -25 9 -34 18 -30 29 3 10 0 9 -9 -3 -21 -28 -6 -58 43
-86 23 -13 40 -25 37 -28 -2 -3 -30 11 -60 31 -31 20 -59 36 -62 36 -19 0 30
-36 118 -86 83 -48 102 -55 109 -42 4 8 17 26 28 39 20 24 20 24 52 6 39 -22
46 -17 118 88 58 84 114 201 143 300 31 108 33 119 18 110 -10 -6 -11 -1 -6
21 4 16 9 48 13 72 3 23 10 45 15 48 6 4 8 -1 5 -12 -3 -11 -8 -41 -11 -69
l-5 -50 11 48 10 47 58 0 59 0 6 -47 c12 -90 64 -261 105 -345 48 -97 135
-218 157 -218 8 0 28 8 45 18 29 17 30 17 49 -10 56 -76 41 -77 161 3 116 77
116 78 70 132 -14 16 -17 16 -39 1 -32 -20 -45 -14 -82 40 -83 121 -167 445
-197 764 l-7 72 -48 0 -49 0 0 245 0 245 -230 0 -230 0 -2 -242z m24 105 c-4
-186 -8 -201 -10 -35 -1 83 1 152 6 152 4 0 6 -53 4 -117z m106 110 c-15 -2
-42 -2 -60 0 -18 2 -6 4 27 4 33 0 48 -2 33 -4z m59 1 c-3 -3 -12 -4 -19 -1
-8 3 -5 6 6 6 11 1 17 -2 13 -5z m44 -11 c1 -17 2 -17 6 0 4 15 18 17 109 17
l104 0 0 -240 0 -240 44 0 44 0 6 -47 c3 -27 8 -75 12 -108 30 -305 118 -603
214 -725 19 -25 20 -25 50 -7 41 22 45 22 64 -8 l16 -25 -92 -60 -93 -61 -37
43 -37 42 -37 -17 -37 -18 -30 28 c-40 37 -106 142 -144 228 -30 66 -73 220
-88 312 -6 38 -10 42 -38 45 l-31 3 3 55 c1 30 7 57 12 58 25 10 39 37 39 79
0 75 24 47 32 -38 20 -209 70 -404 138 -540 39 -78 118 -199 130 -199 24 0 16
25 -26 82 -122 164 -214 458 -215 690 0 84 -3 102 -20 119 -20 20 -89 27 -89
9 0 -5 16 -10 35 -10 24 0 37 -6 45 -20 17 -31 -15 -38 -51 -11 -23 17 -29 18
-29 7 0 -9 -9 -20 -20 -26 -23 -12 -27 -50 -5 -50 18 0 55 -30 55 -45 0 -17
-40 -46 -58 -43 -24 5 -43 48 -38 86 3 23 1 32 -7 29 -7 -2 -17 -49 -24 -115
-14 -129 -45 -269 -79 -360 -50 -132 -164 -332 -189 -332 -30 0 -23 21 27 87
127 168 218 467 218 720 0 77 3 82 54 93 41 8 39 30 -4 44 -35 11 -71 58 -57
73 7 7 14 1 35 -34 4 -6 19 -15 35 -18 20 -6 27 -4 27 8 0 8 -7 17 -15 21 -8
3 -20 17 -27 31 -9 20 -19 25 -45 25 -23 0 -33 4 -31 13 3 8 30 13 77 15 56 2
72 0 69 -10 -3 -7 -15 -14 -27 -16 -27 -4 -22 -26 7 -30 17 -3 22 2 22 17 0
22 14 28 25 10 4 -5 -1 -19 -12 -31 -18 -20 -18 -20 2 -17 11 3 26 17 33 32
11 22 20 27 48 27 21 0 33 4 29 10 -3 6 -33 10 -66 10 -32 0 -59 4 -59 10 0 5
-20 18 -44 29 -81 35 -101 118 -42 177 19 19 40 34 48 34 7 -1 1 -7 -13 -15
-67 -36 -78 -108 -25 -161 43 -43 90 -46 135 -8 60 50 46 140 -26 166 -25 9
-33 18 -34 38 l-1 25 -7 -25 c-6 -20 -9 -15 -12 28 -2 28 -1 52 4 52 4 0 8 -8
8 -17z m64 -139 c30 -33 32 -63 5 -97 -37 -47 -102 -43 -136 7 -51 78 67 159
131 90z m-269 -290 c-3 -9 -6 -22 -6 -29 0 -9 -16 -15 -47 -17 l-48 -3 -6 -45
-7 -45 2 50 1 50 48 3 c42 3 47 5 47 28 0 13 5 24 11 24 6 0 8 -7 5 -16z m244
-180 c0 -15 -6 -24 -15 -24 -10 0 -15 10 -15 30 0 22 4 28 15 24 8 -4 15 -17
15 -30z m-363 -21 c-3 -10 -5 -2 -5 17 0 19 2 27 5 18 2 -10 2 -26 0 -35z
m-10 -65 c-3 -7 -5 -2 -5 12 0 14 2 19 5 13 2 -7 2 -19 0 -25z m-30 -165 c-3
-10 -5 -4 -5 12 0 17 2 24 5 18 2 -7 2 -21 0 -30z m-12 -78 c-3 -26 -9 -45
-12 -42 -2 3 -1 26 2 52 4 25 10 44 12 41 3 -3 2 -26 -2 -51z m255 -135 c-13
-44 -24 -79 -27 -76 -2 2 6 40 18 85 12 45 24 79 26 77 3 -2 -5 -41 -17 -86z
m-37 -112 c-5 -7 -17 -32 -26 -54 -25 -65 -118 -198 -145 -209 -7 -3 -27 2
-44 11 l-31 16 -34 -40 -34 -41 -34 21 c-44 25 -46 34 -3 12 l32 -17 32 38
c34 38 56 41 93 11 25 -20 94 71 161 213 17 35 33 61 37 58 3 -4 1 -12 -4 -19z"/>
<path d="M1813 2010 c-8 -22 -20 -32 -42 -36 -36 -8 -41 -24 -7 -24 29 0 76
43 76 70 0 29 -14 25 -27 -10z"/>
<path d="M1668 1883 c-9 -2 -19 -11 -22 -19 -9 -23 22 -29 44 -9 33 30 25 41
-22 28z"/>
<path d="M1702 1748 c7 -19 38 -22 38 -4 0 10 -9 16 -21 16 -12 0 -19 -5 -17
-12z"/>
<path d="M1702 2274 c-40 -28 -19 -94 29 -94 36 0 59 19 59 49 0 46 -50 72
-88 45z"/>
<path d="M2114 2555 c33 -14 61 -23 64 -20 3 2 -4 8 -14 11 -10 4 -34 13 -53
20 -18 8 -39 14 -45 14 -6 -1 16 -12 48 -25z"/>
<path d="M1000 2550 c0 -19 41 -51 62 -48 36 5 31 25 -12 42 -47 19 -50 19
-50 6z"/>
<path d="M1266 2524 c-37 -19 -66 -37 -64 -39 2 -3 38 13 79 35 41 22 70 39
64 39 -5 0 -41 -16 -79 -35z"/>
<path d="M2204 2518 c11 -7 51 -34 90 -60 210 -139 354 -337 421 -578 13 -47
24 -76 24 -65 2 63 -73 248 -145 358 -87 132 -248 280 -364 336 -25 12 -36 16
-26 9z"/>
<path d="M1128 2439 c-75 -59 -163 -145 -212 -209 -47 -62 -121 -192 -130
-230 -3 -14 4 -5 15 20 78 167 185 299 332 409 52 40 64 51 53 51 -2 0 -28
-19 -58 -41z"/>
<path d="M2833 2302 c4 -18 -1 -26 -23 -37 -16 -8 -36 -15 -45 -15 -8 0 -15
-5 -15 -11 0 -6 11 -9 24 -7 31 4 96 -56 96 -88 0 -23 25 -40 36 -23 3 6 -1
18 -10 28 -19 21 -21 32 -3 29 7 -2 13 9 15 26 3 26 2 28 -12 17 -9 -8 -16
-20 -16 -27 0 -24 -19 -15 -35 15 -8 16 -20 31 -27 34 -7 3 1 11 20 18 38 16
39 20 10 45 -21 19 -21 19 -15 -4z"/>
<path d="M2723 2271 c-44 -17 -88 -51 -48 -37 83 31 125 48 125 52 0 8 -36 2
-77 -15z"/>
<path d="M584 2241 c-2 -2 -4 -17 -4 -32 0 -28 41 -72 80 -84 25 -8 25 -16 -1
-49 l-22 -28 22 -21 c19 -19 23 -20 31 -7 5 8 10 29 10 45 0 33 31 109 49 119
14 9 14 36 0 36 -6 0 -19 -10 -28 -22 -24 -29 -51 -18 -51 20 0 28 -2 29 -41
28 -22 0 -42 -3 -45 -5z"/>
<path d="M2760 2173 c0 -12 10 -25 26 -32 37 -17 39 -9 4 24 -27 26 -30 27
-30 8z"/>
<path d="M2810 2170 c0 -5 5 -10 10 -10 6 0 10 5 10 10 0 6 -4 10 -10 10 -5 0
-10 -4 -10 -10z"/>
<path d="M2725 2120 c-21 -34 32 -113 62 -94 24 15 28 33 6 28 -25 -7 -57 29
-50 56 5 21 -7 28 -18 10z"/>
<path d="M757 1932 c-45 -113 -60 -364 -32 -528 55 -310 274 -593 574 -739 70
-34 163 -66 190 -64 9 0 -18 11 -59 23 -343 103 -622 414 -691 768 -32 165
-21 395 26 530 18 54 12 61 -8 10z"/>
<path d="M2960 1766 c0 -34 -1 -35 -52 -43 -28 -4 -53 -14 -56 -22 -4 -11 6
-12 49 -6 77 10 86 17 81 59 -6 48 -22 57 -22 12z"/>
<path d="M2747 1735 c27 -246 -34 -506 -164 -703 -46 -69 -165 -196 -236 -251
-29 -21 -90 -60 -137 -85 -88 -47 -100 -57 -34 -30 75 31 210 129 287 208 198
202 300 451 299 731 -1 66 -5 136 -11 155 -8 29 -9 25 -4 -25z"/>
<path d="M495 1744 c-10 -11 -15 -29 -13 -53 3 -33 6 -36 33 -36 24 0 33 6 44
33 8 17 21 32 28 32 16 0 17 -14 2 -42 -13 -25 -5 -35 16 -18 18 15 20 61 3
78 -21 21 -37 13 -63 -28 -25 -40 -45 -45 -45 -13 0 9 7 24 16 34 20 22 1 35
-21 13z"/>
<path d="M2871 1604 c-25 -32 -26 -52 -5 -82 12 -17 25 -22 58 -22 51 0 69 17
69 62 0 64 -83 92 -122 42z m97 -32 c4 -29 -14 -52 -42 -52 -28 0 -46 18 -46
45 0 30 9 36 50 33 28 -2 36 -8 38 -26z"/>
<path d="M475 1561 c-3 -5 9 -11 27 -13 28 -2 33 -7 33 -28 0 -20 -6 -26 -27
-28 -16 -2 -28 -9 -28 -18 0 -15 63 -20 108 -8 30 8 28 24 -3 24 -21 0 -25 5
-25 30 0 25 4 30 25 30 14 0 25 5 25 10 0 13 -127 13 -135 1z"/>
<path d="M2856 1414 c-22 -21 -20 -77 2 -97 22 -20 71 -22 95 -4 28 21 32 72
8 96 -25 25 -82 28 -105 5z m84 -24 c17 -17 18 -24 10 -41 -15 -27 -31 -32
-63 -20 -46 18 -30 79 21 81 6 0 21 -9 32 -20z"/>
<path d="M490 1376 c0 -9 6 -16 14 -16 22 0 30 -49 11 -69 -17 -20 -19 -31 -5
-31 19 0 120 71 120 84 0 9 -21 19 -52 26 -29 6 -61 14 -70 17 -12 3 -18 -1
-18 -11z m93 -41 c1 -5 -6 -11 -15 -13 -11 -2 -18 3 -18 13 0 17 30 18 33 0z"/>
<path d="M2810 1241 c0 -5 10 -15 21 -23 16 -10 20 -19 14 -37 -6 -19 -11 -21
-37 -16 -22 5 -29 4 -26 -6 4 -12 87 -46 116 -48 22 -2 13 19 -14 29 -18 7
-24 15 -20 26 3 9 6 20 6 26 0 6 14 8 36 3 54 -10 39 15 -22 36 -57 20 -74 23
-74 10z"/>
<path d="M577 1202 c-26 -9 -46 -20 -43 -26 4 -12 5 -12 51 0 l29 7 -33 -42
c-21 -26 -30 -46 -24 -52 11 -11 133 28 133 42 0 12 -22 11 -54 -1 -33 -12
-33 0 -1 38 45 54 29 63 -58 34z"/>
<path d="M2736 1048 c-23 -33 -20 -53 16 -83 23 -20 38 -25 57 -20 43 10 61
47 45 89 -10 26 -24 7 -17 -24 4 -22 1 -31 -11 -36 -25 -10 -64 4 -77 28 -10
18 -8 24 10 39 25 20 27 29 7 29 -8 0 -22 -10 -30 -22z"/>
<path d="M632 1017 c-28 -29 -28 -57 -1 -91 23 -29 37 -32 63 -13 16 11 17 17
7 36 -13 24 -34 20 -24 -5 4 -12 1 -15 -13 -12 -25 4 -30 45 -8 69 32 36 74
18 74 -33 0 -30 14 -38 24 -13 7 18 -2 44 -22 68 -22 25 -74 22 -100 -6z"/>
<path d="M2649 899 c-23 -23 -22 -57 2 -72 12 -8 24 -4 48 13 23 16 36 19 43
12 13 -13 -6 -42 -28 -42 -20 0 -27 -19 -9 -26 22 -9 65 33 65 62 0 13 -9 28
-21 35 -18 9 -27 7 -50 -10 -29 -21 -49 -27 -49 -13 0 13 15 28 33 35 10 4 15
11 12 17 -9 15 -23 12 -46 -11z"/>
<path d="M756 863 c-24 -21 -45 -44 -45 -50 -1 -18 9 -16 31 4 17 15 19 15 38
-2 l20 -18 -20 -22 c-47 -50 -9 -47 50 4 45 39 51 63 10 41 -16 -9 -25 -9 -36
1 -18 15 -18 28 2 50 31 35 -5 29 -50 -8z"/>
<path d="M889 712 c-49 -28 -62 -49 -28 -44 27 5 49 -15 49 -44 0 -46 19 -33
39 28 12 34 21 68 21 75 0 21 -31 15 -81 -15z m51 -9 c-1 -18 -19 -35 -29 -28
-9 5 -9 10 0 21 12 15 29 19 29 7z"/>
<path d="M2392 652 c-16 -13 -23 -26 -20 -43 3 -22 7 -24 56 -21 28 1 52 -1
52 -6 0 -16 -27 -33 -46 -30 -9 2 -19 -2 -21 -8 -7 -20 27 -25 58 -9 22 12 29
22 29 45 0 35 -29 47 -73 31 -17 -7 -28 -7 -32 -1 -10 16 5 30 31 30 16 0 24
5 22 13 -7 19 -31 19 -56 -1z"/>
<path d="M1021 605 c-26 -34 -37 -56 -30 -61 11 -7 43 28 73 78 30 50 -2 38
-43 -17z"/>
<path d="M2025 619 c-47 -15 -52 -18 -20 -13 22 3 53 12 70 19 43 19 20 16
-50 -6z"/>
<path d="M1518 593 c7 -3 16 -2 19 1 4 3 -2 6 -13 5 -11 0 -14 -3 -6 -6z"/>
<path d="M1558 583 c6 -2 18 -2 25 0 6 3 1 5 -13 5 -14 0 -19 -2 -12 -5z"/>
<path d="M1888 583 c7 -3 16 -2 19 1 4 3 -2 6 -13 5 -11 0 -14 -3 -6 -6z"/>
<path d="M1618 573 c12 -2 32 -2 45 0 12 2 2 4 -23 4 -25 0 -35 -2 -22 -4z"/>
<path d="M1803 573 c15 -2 37 -2 50 0 12 2 0 4 -28 4 -27 0 -38 -2 -22 -4z"/>
<path d="M2253 568 c-28 -14 -39 -44 -22 -64 9 -11 23 -13 50 -9 20 4 40 2 43
-3 8 -14 -19 -34 -42 -30 -24 4 -32 -12 -11 -25 23 -14 73 12 77 41 6 37 -15
53 -59 46 -32 -5 -39 -4 -39 10 0 11 9 16 31 16 20 0 29 4 27 13 -6 16 -28 18
-55 5z"/>
<path d="M1271 459 c-13 -33 -22 -62 -20 -64 2 -1 21 -10 42 -19 47 -19 80 -7
76 27 -2 12 2 31 8 42 6 11 8 26 6 33 -4 11 -64 42 -82 42 -3 0 -17 -27 -30
-61z m73 25 c22 -8 20 -34 -1 -34 -26 0 -47 16 -39 29 8 12 17 14 40 5z m-23
-54 c24 -13 25 -40 2 -40 -28 0 -44 15 -37 33 7 20 9 20 35 7z"/>
<path d="M2095 498 c-16 -6 -32 -12 -34 -14 -9 -8 43 -124 56 -124 26 0 85 29
78 39 -4 7 -14 6 -30 -1 -26 -12 -55 -5 -55 12 0 6 14 16 30 21 17 6 30 15 30
20 0 12 -12 11 -43 0 -20 -8 -27 -6 -31 5 -4 10 5 20 29 30 19 8 35 16 35 19
0 8 -33 4 -65 -7z"/>
<path d="M1457 446 c-3 -7 -8 -33 -12 -58 -5 -34 -3 -47 10 -58 16 -13 70 -19
81 -8 9 9 32 117 26 123 -13 13 -21 2 -27 -38 -9 -55 -18 -70 -41 -65 -16 3
-19 12 -16 61 3 53 -9 76 -21 43z"/>
<path d="M1977 418 l6 -43 -41 38 c-24 24 -42 35 -46 28 -10 -15 14 -131 26
-131 6 0 8 16 6 35 -5 43 4 44 41 3 42 -47 56 -30 39 47 -16 71 -39 88 -31 23z"/>
<path d="M1648 429 c-30 -17 -22 -48 16 -64 19 -8 37 -19 41 -25 10 -17 -25
-24 -51 -10 -28 15 -42 7 -25 -14 15 -18 52 -25 80 -14 35 13 25 59 -16 77
-18 8 -33 21 -33 28 0 16 14 17 40 1 26 -16 40 0 16 18 -23 16 -44 17 -68 3z"/>
<path d="M1802 373 c2 -42 8 -68 16 -71 8 -3 12 12 12 51 0 60 -7 87 -22 87
-5 0 -8 -30 -6 -67z"/>
<path d="M9310 2781 c-9 -6 -17 -32 -20 -68 l-5 -58 -45 -7 c-27 -5 -63 -4
-89 2 -70 17 -80 1 -83 -134 -2 -103 -1 -110 21 -127 37 -30 58 -11 63 58 5
75 25 115 62 124 45 12 287 23 339 15 57 -9 63 -19 78 -121 12 -82 23 -95 63
-77 21 9 23 19 30 119 l6 108 -30 28 c-33 29 -50 33 -81 16 -13 -6 -49 -8 -98
-3 l-78 6 -9 41 c-13 58 -85 103 -124 78z"/>
<path d="M5283 2773 c-15 -3 -25 -14 -29 -31 -3 -15 -9 -38 -13 -52 l-8 -25
-195 0 -195 0 -41 -29 c-44 -30 -55 -60 -24 -68 9 -3 58 1 107 8 50 7 123 13
163 13 l72 1 0 -46 0 -46 -47 6 c-27 3 -68 8 -93 12 -36 4 -51 2 -70 -14 l-23
-19 21 -45 c25 -50 29 -131 11 -203 -14 -56 -66 -117 -124 -144 -40 -19 -44
-24 -35 -41 36 -67 144 -49 219 36 50 58 72 134 72 258 l0 94 113 7 c63 4 181
6 264 4 128 -4 154 -7 169 -22 16 -15 19 -44 23 -220 l5 -202 56 0 c91 1 89
-6 82 243 -7 269 -1 258 -138 254 -54 -1 -96 2 -100 8 -3 5 1 23 10 40 15 28
19 30 53 24 20 -3 59 -12 86 -20 78 -22 126 -18 178 15 49 31 82 71 70 83 -4
4 -115 8 -247 9 -132 1 -245 6 -252 11 -6 5 -15 23 -18 39 -10 45 -66 73 -122
62z m132 -223 l0 -45 -90 0 -90 0 -3 33 c-6 60 -2 63 95 60 l88 -3 0 -45z"/>
<path d="M6671 2771 c-9 -6 -15 -27 -15 -53 l-1 -43 -114 -1 c-112 0 -114 -1
-138 -28 -13 -16 -23 -36 -21 -45 4 -19 24 -19 118 -3 93 17 160 16 160 -2 0
-20 -50 -29 -123 -21 -90 10 -94 3 -98 -160 -4 -119 -3 -130 14 -133 34 -7 67
8 82 38 14 27 20 30 65 30 45 0 50 -3 64 -32 9 -17 14 -33 12 -35 -2 -2 -76
-5 -165 -7 -151 -3 -163 -5 -185 -26 -30 -27 -38 -54 -22 -75 11 -15 18 -14
86 9 41 13 104 27 140 31 36 3 76 9 90 11 l25 6 -23 -25 c-12 -13 -20 -31 -17
-39 15 -37 155 -68 155 -34 0 8 -8 17 -18 20 -23 8 -78 64 -70 72 3 3 38 2 78
-2 l72 -7 -6 -39 c-8 -51 -24 -75 -62 -93 -44 -21 -104 -19 -171 5 -68 24 -63
23 -63 5 0 -26 54 -65 119 -85 106 -33 200 -22 253 30 24 25 28 36 28 89 0 33
4 62 9 65 4 3 34 -1 65 -9 31 -8 70 -15 87 -15 63 0 129 47 129 92 0 16 -12
18 -124 18 -73 0 -127 4 -131 10 -3 6 2 10 12 10 37 0 43 20 43 142 l0 117
-32 17 c-27 14 -37 15 -66 4 -44 -15 -142 -5 -142 15 0 12 29 15 147 17 135 3
148 5 151 22 2 10 -2 22 -10 27 -7 5 -71 9 -141 9 -93 0 -129 3 -131 13 -3 6
-7 23 -10 37 -5 25 -51 60 -78 60 -7 0 -19 -4 -27 -9z m-11 -271 c0 -17 -7
-20 -47 -20 -27 0 -55 5 -63 10 -24 16 6 30 63 30 40 0 47 -3 47 -20z m235 0
c0 -11 -15 -16 -62 -18 -58 -3 -63 -1 -63 18 0 19 5 21 63 18 47 -2 62 -7 62
-18z m-237 -82 c3 -16 -5 -18 -57 -18 -46 0 -61 3 -61 14 0 10 13 16 38 19 59
6 77 3 80 -15z m213 12 c19 0 29 -5 29 -15 0 -12 -14 -15 -65 -15 -47 0 -65 4
-65 13 0 22 13 29 44 23 16 -3 41 -6 57 -6z m32 -100 c4 -16 2 -18 -13 -10
-31 16 -61 12 -67 -10 -4 -16 -14 -20 -51 -20 -45 0 -46 1 -24 16 12 8 22 22
22 30 0 11 15 14 64 14 55 0 64 -3 69 -20z"/>
<path d="M7581 2757 c-5 -13 -7 -62 -4 -109 6 -83 5 -85 -18 -91 -34 -9 -43 6
-30 46 14 41 8 61 -25 76 -49 22 -61 15 -75 -41 -16 -70 -35 -114 -71 -166
-30 -44 -31 -72 -3 -72 17 0 90 43 100 60 3 5 33 10 66 10 l60 0 -3 -52 -3
-53 -135 -23 c-153 -26 -180 -39 -180 -82 0 -53 29 -56 171 -21 69 17 128 31
133 31 5 0 6 -53 3 -120 -6 -111 -5 -122 13 -140 24 -24 32 -25 69 -5 35 17
41 48 41 198 0 95 2 107 18 107 9 0 36 9 60 20 31 14 43 25 40 37 -3 15 -14
18 -58 18 l-55 0 0 45 0 45 47 3 c55 4 84 31 67 64 -8 14 -21 18 -64 18 -53 0
-55 1 -54 28 0 15 4 49 8 76 11 64 5 84 -30 101 -43 23 -78 19 -88 -8z"/>
<path d="M10212 2771 c-7 -4 -16 -21 -21 -37 -10 -40 -61 -51 -161 -34 l-75
12 -32 -38 c-36 -41 -40 -56 -20 -72 10 -8 26 -7 62 3 26 8 85 15 130 15 79 0
82 -1 103 -30 30 -39 55 -38 88 5 l26 35 87 0 c97 0 131 -7 131 -25 0 -6 9
-20 20 -30 25 -23 62 -14 80 20 13 24 16 25 126 25 106 0 114 1 125 22 19 35
-11 48 -112 48 -99 0 -119 5 -119 30 0 9 -8 24 -17 32 -44 38 -84 29 -101 -22
l-11 -30 -101 0 -101 0 -11 30 c-15 44 -61 63 -96 41z"/>
<path d="M11639 2758 c-7 -13 -9 -44 -6 -80 3 -32 1 -60 -3 -63 -5 -3 -79 -7
-165 -9 l-157 -4 -34 -33 c-35 -34 -44 -63 -21 -72 7 -3 53 4 103 14 90 19
274 26 274 11 0 -19 -62 -94 -103 -123 -59 -44 -204 -111 -324 -150 -63 -20
-103 -39 -103 -47 0 -7 11 -24 25 -37 62 -63 256 -3 424 131 43 35 82 64 86
64 4 0 4 -74 0 -165 -7 -144 -6 -168 9 -190 20 -30 54 -33 87 -6 24 19 24 23
28 215 l3 196 30 -22 c17 -11 82 -69 144 -128 118 -112 161 -140 211 -140 52
0 163 86 163 126 0 8 -39 26 -97 44 -54 17 -145 51 -203 76 -104 44 -240 127
-248 152 -3 9 37 12 176 12 159 0 181 2 186 17 13 34 -14 42 -164 48 -202 9
-188 3 -192 77 -3 58 -5 64 -37 85 -43 29 -77 30 -92 1z"/>
<path d="M6838 2736 c-15 -18 -24 -36 -21 -40 4 -3 26 -6 49 -6 60 0 93 37 62
68 -23 23 -62 14 -90 -22z"/>
<path d="M7987 2759 c-9 -5 -38 -53 -64 -105 -35 -71 -64 -113 -110 -159 -35
-34 -60 -65 -56 -69 11 -11 63 -6 92 8 15 8 47 31 70 50 43 36 91 48 91 23 0
-45 -118 -168 -223 -233 -52 -32 -57 -53 -16 -68 61 -21 218 94 316 231 25 35
51 63 59 63 52 0 -2 -94 -120 -211 -62 -61 -135 -116 -228 -173 -35 -21 -35
-34 -2 -46 84 -32 276 105 416 298 33 45 66 82 73 82 7 0 18 -7 25 -15 11 -13
5 -31 -33 -108 -52 -104 -124 -193 -175 -214 -22 -9 -49 -12 -78 -7 -24 3 -44
3 -44 -1 0 -25 47 -77 86 -95 44 -22 46 -22 89 -5 68 25 130 101 216 266 85
160 95 189 78 222 -20 36 -41 46 -99 47 -30 0 -79 7 -109 15 -30 8 -85 17
-123 21 -38 4 -71 10 -73 15 -3 4 4 23 15 41 34 57 23 108 -28 126 -17 6 -35
6 -45 1z"/>
<path d="M8824 2748 c-11 -13 -35 -47 -53 -76 -40 -63 -106 -123 -183 -165
-66 -37 -72 -46 -51 -77 28 -40 107 -13 226 77 65 49 75 53 124 53 46 0 53 -3
53 -19 0 -11 -14 -31 -31 -45 -24 -20 -35 -24 -49 -16 -26 14 -43 13 -66 -4
-17 -13 -19 -25 -16 -133 3 -100 0 -130 -17 -181 -24 -70 -26 -91 -10 -125 21
-45 50 -49 120 -16 77 37 199 155 199 194 0 33 -12 32 -97 -11 -39 -20 -76
-33 -82 -30 -12 8 -15 129 -5 211 6 49 8 51 51 69 95 40 136 108 97 164 -12
18 -25 22 -70 22 l-56 0 7 30 c9 42 -2 68 -35 85 -36 19 -33 19 -56 -7z"/>
<path d="M6184 2747 c-31 -17 -35 -29 -29 -94 l7 -63 -64 0 c-55 0 -68 -3 -87
-24 -17 -18 -22 -32 -17 -50 8 -31 31 -39 76 -26 19 6 48 10 64 10 l29 0 -7
-147 c-4 -82 -11 -184 -17 -228 -13 -105 -4 -135 45 -135 22 0 45 9 63 24 l28
24 0 234 0 233 47 5 c53 7 74 21 65 45 -7 17 -15 21 -68 29 l-36 6 5 49 c3 35
0 55 -13 74 -21 32 -64 49 -91 34z"/>
<path d="M12675 2753 c-54 -14 -58 -61 -19 -219 30 -119 46 -138 92 -108 41
27 237 32 336 9 119 -28 144 -12 157 100 24 190 24 181 -2 199 -26 18 -84 22
-94 6 -4 -6 -81 -10 -198 -10 -153 1 -196 4 -211 15 -20 15 -27 16 -61 8z
m451 -129 c3 -19 2 -50 -3 -67 l-9 -32 -171 -3 -170 -2 -7 37 c-3 21 -6 53 -6
71 l0 32 180 0 179 0 7 -36z"/>
<path d="M3939 2733 c-11 -13 -13 -64 -10 -257 2 -195 1 -244 -10 -253 -17
-14 -220 -19 -300 -9 -52 7 -57 6 -99 -26 -47 -36 -68 -74 -56 -103 7 -20 38
-18 136 10 88 24 342 47 465 42 91 -4 139 -13 279 -52 108 -30 177 -44 194
-40 61 15 167 114 145 136 -14 14 -227 29 -413 29 -91 0 -175 3 -188 6 -22 6
-23 9 -20 133 l3 126 145 2 c187 4 192 5 188 45 -4 42 -19 46 -192 47 l-139 1
7 48 c11 86 -21 132 -93 132 -16 0 -35 -7 -42 -17z"/>
<path d="M11912 2705 c-54 -52 -48 -65 28 -65 60 0 94 19 98 52 3 21 -3 30
-27 42 -42 22 -47 21 -99 -29z"/>
<path d="M10086 2529 c-28 -24 -36 -38 -34 -58 4 -31 9 -31 123 -7 52 11 114
16 175 14 l95 -3 -115 -57 c-130 -65 -190 -115 -215 -182 -34 -88 -3 -166 81
-206 97 -45 538 -49 622 -6 59 30 100 76 122 132 11 30 20 66 20 79 0 28 -21
33 -40 10 -21 -25 -95 -63 -176 -91 -138 -47 -443 -46 -496 3 -59 53 21 146
197 231 142 68 136 65 151 88 11 15 11 24 1 44 l-12 24 -205 1 c-113 1 -217 5
-231 9 -21 6 -33 2 -63 -25z"/>
<path d="M9215 2506 c-19 -14 -20 -28 -22 -238 0 -123 1 -231 4 -241 9 -34 40
-40 90 -16 42 20 55 21 179 16 175 -7 178 -5 182 120 4 83 2 89 -21 112 -29
26 -50 28 -126 12 -29 -6 -87 -11 -128 -11 -71 0 -74 1 -71 23 3 21 6 22 116
22 107 0 115 1 133 24 29 36 27 143 -3 171 -20 18 -31 20 -78 16 -91 -10 -173
-11 -205 -3 -21 5 -37 3 -50 -7z m245 -71 c6 -8 9 -23 6 -33 -7 -22 -44 -32
-117 -32 l-49 0 0 34 c0 34 1 35 43 39 88 8 105 7 117 -8z m64 -241 c21 -8 21
-58 -1 -75 -11 -10 -46 -14 -117 -14 l-101 0 0 40 0 40 55 6 c82 9 146 10 164
3z"/>
<path d="M5184 2399 c-16 -17 -46 -40 -66 -52 -39 -21 -45 -31 -28 -42 30 -18
210 63 210 95 0 8 -54 30 -75 30 -6 0 -24 -14 -41 -31z"/>
<path d="M5386 2415 c-24 -24 -8 -45 58 -76 59 -28 126 -39 126 -20 0 5 -15
20 -32 32 -18 13 -48 35 -66 51 -37 31 -63 35 -86 13z"/>
<path d="M13040 2402 c-37 -13 -41 -33 -35 -162 7 -141 17 -206 34 -223 9 -9
23 -5 58 13 39 21 61 25 129 25 61 0 87 -4 101 -16 33 -30 59 -31 90 -5 27 23
31 34 42 128 7 57 15 120 18 141 10 71 -48 122 -105 93 -40 -21 -234 -22 -283
-2 -19 7 -41 11 -49 8z m275 -101 l30 -7 -2 -69 c-2 -91 -10 -97 -128 -93
l-90 3 -8 75 c-4 41 -5 81 -2 88 5 13 144 15 200 3z"/>
<path d="M12805 2384 c-23 -12 -55 -14 -155 -11 -69 3 -141 8 -162 12 -32 6
-38 4 -53 -19 -14 -20 -16 -38 -11 -74 22 -167 34 -233 46 -246 16 -20 49 -20
78 0 19 13 42 15 130 11 59 -3 123 -9 143 -12 58 -11 74 19 82 147 4 57 10
112 13 124 6 24 -29 69 -61 78 -11 3 -33 -1 -50 -10z m-52 -90 l38 -7 -3 -71
-3 -71 -111 -3 -111 -3 -7 32 c-3 17 -6 51 -6 75 0 41 1 43 33 47 55 7 130 7
170 1z"/>
<path d="M5134 2277 c-17 -10 -19 -84 -3 -140 13 -47 46 -66 84 -49 16 7 80
12 161 12 l134 0 10 26 c12 32 13 124 1 143 -8 12 -45 15 -191 15 -100 1 -188
-3 -196 -7z m260 -37 c20 -7 26 -17 26 -38 0 -44 -16 -52 -106 -52 -76 0 -82
1 -88 23 -15 57 -10 66 47 70 28 2 62 4 74 5 12 1 33 -2 47 -8z"/>
<path d="M10249 1344 c-117 -105 -230 -163 -359 -185 -86 -15 -100 -23 -100
-59 0 -64 47 -74 186 -39 84 21 89 22 173 6 204 -39 356 -30 469 27 28 14 56
26 61 26 6 0 42 -23 80 -51 52 -38 77 -50 98 -47 55 6 41 37 -59 134 -136 131
-193 174 -233 174 -18 0 -35 -6 -38 -12 -7 -20 11 -58 44 -96 16 -18 28 -39
26 -45 -6 -18 -79 -38 -164 -44 -95 -7 -266 14 -260 31 2 6 47 34 100 61 53
28 107 61 121 74 35 33 34 66 -4 86 -50 26 -73 19 -141 -41z"/>
<path d="M8650 1313 c-9 -7 -23 -26 -30 -43 -11 -27 -11 -34 3 -47 14 -15 21
-15 75 1 75 21 76 21 47 -9 -59 -58 -9 -136 102 -160 47 -10 57 1 36 38 -11
18 -27 53 -36 79 -10 25 -25 49 -32 52 -8 3 -15 10 -15 16 0 6 35 10 89 10 72
0 90 -3 95 -16 10 -27 7 -184 -5 -206 -10 -19 -18 -20 -229 -16 l-219 3 -29
-28 c-48 -46 -53 -124 -8 -114 12 3 53 17 91 31 62 22 89 25 230 28 l160 3 5
-157 c3 -101 9 -161 17 -169 19 -19 79 -2 104 29 20 25 21 35 16 154 -3 88 -1
130 7 137 15 12 169 -5 268 -30 105 -26 176 -25 219 4 37 25 82 85 73 98 -3 5
-126 9 -274 9 -147 0 -275 3 -284 6 -13 5 -16 25 -16 115 l0 109 180 0 c178 0
181 0 189 23 20 54 8 56 -468 60 -259 2 -347 -1 -361 -10z"/>
<path d="M6455 1251 c-78 -19 -70 -9 -99 -136 -29 -123 -103 -258 -216 -394
l-50 -60 58 -21 57 -21 21 27 c60 74 184 368 184 434 0 11 5 20 10 20 6 0 10
-10 10 -23 0 -88 113 -346 189 -428 25 -27 28 -28 67 -18 42 11 42 11 94 132
62 145 122 317 143 409 12 54 12 70 2 84 -12 17 -15 17 -61 -1 -75 -28 -104
-63 -104 -123 0 -27 7 -69 15 -93 18 -51 13 -84 -37 -213 l-31 -79 -19 24
c-33 42 -96 181 -118 259 -11 41 -23 112 -27 158 -3 45 -9 81 -12 81 -3 -1
-37 -9 -76 -18z"/>
<path d="M7401 1249 c-137 -18 -164 -27 -188 -64 -13 -19 -23 -37 -23 -40 0
-3 28 -3 63 0 l62 6 -50 -28 c-45 -25 -53 -36 -82 -103 -17 -41 -43 -114 -57
-161 -24 -83 -57 -231 -53 -235 1 -1 39 5 85 13 l82 15 0 42 c0 23 5 69 11
102 18 105 2 96 166 93 l146 -2 35 48 35 48 -133 -6 c-104 -5 -142 -11 -174
-26 -22 -11 -41 -19 -43 -17 -6 5 36 105 70 169 l31 59 159 -3 160 -3 23 45
c13 24 23 47 24 52 0 9 -267 7 -349 -4z"/>
<path d="M7862 1204 c-13 -25 -21 -48 -19 -50 2 -2 51 -10 109 -16 l105 -12
-24 -55 c-56 -126 -104 -289 -119 -400 -6 -44 -4 -53 7 -49 8 3 46 11 86 18
l72 13 0 81 c0 94 27 211 71 304 l29 63 -31 13 -31 14 54 6 c178 22 185 24
204 67 10 21 16 42 13 45 -3 3 -45 0 -94 -7 -87 -11 -348 -8 -389 6 -17 5 -24
-2 -43 -41z"/>
<path d="M9314 1222 c-6 -4 -25 -29 -44 -57 -18 -27 -44 -62 -58 -78 -36 -38
-20 -50 46 -33 80 22 116 46 126 88 15 58 -29 108 -70 80z"/>
<path d="M9984 985 c-24 -24 -26 -31 -20 -73 4 -26 9 -81 12 -122 3 -41 10
-89 15 -106 16 -53 76 -66 121 -27 26 23 399 14 445 -10 42 -22 75 -21 106 3
28 22 30 28 47 187 13 118 7 137 -46 159 -30 13 -38 12 -71 -2 -31 -13 -55
-14 -133 -7 -52 4 -160 8 -240 9 -80 0 -159 4 -177 8 -27 7 -36 4 -59 -19z
m604 -137 c5 -102 17 -98 -253 -98 -128 0 -236 4 -239 9 -9 15 -19 119 -13
136 6 13 36 15 254 13 l248 -3 3 -57z"/>
</g>
</svg>
